<svg fill="none" height="56" viewBox="0 0 184 56" width="184" xmlns="http://www.w3.org/2000/svg">
    <g clip-path="url(#clip0_54883_32731)">
        <path d="M107.715 31.9598C107.715 29.2498 109.671 27.1118 112.138 27.1118C114.605 27.1118 116.41 29.1895 116.41 31.9598C116.41 34.7301 114.575 36.8681 112.138 36.8681C109.701 36.8681 107.715 34.7 107.715 31.9598ZM99.2305 39.5179H102.691V24.4619H99.2305V39.5179ZM98.6888 19.4333C98.6888 20.7281 99.7422 21.782 100.976 21.782C102.209 21.782 103.232 20.7281 103.232 19.4333C103.232 18.2288 102.209 17.205 100.976 17.205C99.7422 17.205 98.6888 18.2288 98.6888 19.4333ZM85.1196 31.9297C85.1196 29.2196 87.1052 27.1118 89.6625 27.1118C92.2204 27.1118 94.2059 29.2196 94.2059 31.9297C94.2059 34.6398 92.1898 36.8681 89.6625 36.8681C87.1352 36.8681 85.1196 34.6699 85.1196 31.9297ZM81.5989 31.9297C81.5989 36.4465 85.1496 39.9997 89.6625 39.9997C94.1759 39.9997 97.726 36.4465 97.726 31.9297C97.726 27.4129 94.2359 23.9801 89.6625 23.9801C85.0896 23.9801 81.5989 27.443 81.5989 31.9297ZM72.2421 39.5179H75.7022V31.6286C75.7022 28.4969 77.3566 27.1118 80.1251 27.1118C80.6362 27.1118 81.0279 27.1419 81.3884 27.2322V24.1909C81.0279 24.0705 80.3956 23.9801 79.7039 23.9801C75.0099 23.9801 72.2421 26.9311 72.2421 31.6286V39.5179ZM58.3717 31.9598C58.3717 29.2498 60.3274 27.1118 62.7946 27.1118C65.2619 27.1118 67.0669 29.1895 67.0669 31.9598C67.0669 34.7301 65.2319 36.8681 62.7946 36.8681C60.3575 36.8681 58.3717 34.7 58.3717 31.9598ZM54.8515 31.9598C54.8515 36.326 58.3416 39.9997 62.4635 39.9997C64.1785 39.9997 65.743 39.3071 66.6758 38.1629H66.8264V39.5179H70.2865V16.0005H66.8264V25.6965H66.6758C65.773 24.6125 64.2085 23.9801 62.4635 23.9801C58.3115 23.9801 54.8515 27.6237 54.8515 31.9598ZM39.6874 39.5179H43.1474V30.6951C43.1474 28.5873 44.5616 27.1118 46.5172 27.1118C48.473 27.1118 49.887 28.5873 49.887 30.6951V39.5179H53.3471V30.6951C53.3471 27.0215 50.4286 23.9801 46.5172 23.9801C42.6059 23.9801 39.6874 27.0215 39.6874 30.6951V39.5179ZM23.8012 30.4843L27.5321 19.7946H27.7126L31.4434 30.4843H23.8012ZM16.7607 39.5179H20.6721L22.6278 33.9171H32.6168L34.5725 39.5179H38.4839L29.7886 16.0005H25.456L16.7607 39.5179ZM111.807 39.9997C113.522 39.9997 115.086 39.3071 116.019 38.1629H116.17V39.5179H119.63V16.0005H116.17V25.6965H116.019C115.116 24.6125 113.552 23.9801 111.807 23.9801C107.655 23.9801 104.195 27.6237 104.195 31.9598C104.195 36.2959 107.685 39.9997 111.807 39.9997Z"
                fill="#202124" />
        <path d="M167.895 38.8713C167.882 38.7887 167.87 38.7069 167.856 38.6252C167.772 38.1182 167.669 37.6171 167.548 37.1228C167.336 36.2593 167.07 35.4165 166.752 34.6004C166.483 33.9092 166.177 33.2367 165.838 32.585C165.401 31.7481 164.909 30.9447 164.364 30.1806C163.697 29.2443 162.952 28.3671 162.139 27.5588C161.798 27.2191 161.444 26.8913 161.08 26.5772C160.29 25.8949 159.446 25.2737 158.556 24.7184C158.564 24.7055 158.571 24.6918 158.579 24.6789C158.986 23.975 159.395 23.272 159.802 22.5681C160.2 21.8808 160.598 21.1936 160.997 20.5064C161.284 20.0132 161.57 19.5189 161.855 19.0256C161.922 18.9084 161.976 18.7874 162.016 18.6633C162.128 18.3177 162.132 17.9544 162.043 17.6167C162.02 17.5331 161.993 17.4513 161.959 17.3716C161.925 17.2918 161.886 17.214 161.842 17.1392C161.69 16.8833 161.472 16.6607 161.198 16.4982C160.957 16.3545 160.686 16.2689 160.409 16.2443C160.293 16.2344 160.176 16.2354 160.059 16.2472C159.963 16.257 159.868 16.2748 159.773 16.2994C159.436 16.389 159.123 16.5741 158.879 16.8419C158.792 16.9383 158.712 17.0447 158.645 17.1618C158.359 17.6551 158.072 18.1494 157.787 18.6426L156.592 20.7043C156.185 21.4083 155.776 22.1112 155.369 22.8152C155.324 22.892 155.279 22.9688 155.235 23.0466C155.173 23.0219 155.112 22.9973 155.05 22.9737C152.804 22.1171 150.368 21.6485 147.821 21.6485C147.751 21.6485 147.682 21.6485 147.612 21.6495C145.347 21.6721 143.171 22.0659 141.141 22.7729C140.907 22.8546 140.675 22.9412 140.444 23.0318C140.403 22.9599 140.36 22.8881 140.32 22.8162C139.912 22.1122 139.504 21.4092 139.097 20.7053C138.698 20.0181 138.3 19.3308 137.902 18.6436C137.615 18.1503 137.329 17.6561 137.044 17.1629C136.975 17.0457 136.897 16.9394 136.809 16.8429C136.566 16.575 136.253 16.3899 135.915 16.3004C135.821 16.2758 135.725 16.2581 135.629 16.2482C135.513 16.2364 135.396 16.2354 135.28 16.2452C135.002 16.2689 134.732 16.3545 134.489 16.4993C134.216 16.6617 134 16.8842 133.846 17.1402C133.802 17.215 133.762 17.2928 133.729 17.3726C133.696 17.4523 133.667 17.534 133.645 17.6177C133.556 17.9554 133.561 18.3187 133.672 18.6643C133.713 18.7884 133.765 18.9095 133.833 19.0266C134.12 19.5199 134.406 20.0141 134.691 20.5074C135.09 21.1946 135.488 21.8819 135.887 22.569C136.294 23.273 136.702 23.976 137.109 24.68C137.112 24.6858 137.116 24.6918 137.119 24.6977C136.297 25.2087 135.516 25.7748 134.778 26.394C134.336 26.7653 133.91 27.1541 133.502 27.5607C132.689 28.3691 131.945 29.2463 131.277 30.1826C130.732 30.9467 130.239 31.749 129.803 32.5869C129.464 33.2387 129.158 33.9111 128.889 34.6023C128.571 35.4185 128.305 36.2613 128.093 37.1247C127.972 37.619 127.87 38.1192 127.785 38.6272C127.771 38.7089 127.759 38.7916 127.746 38.8733C127.701 39.1677 127.662 39.4641 127.63 39.7624H168.008C167.976 39.4641 167.937 39.1677 167.892 38.8733L167.895 38.8713Z"
                fill="#34A853" />
        <path d="M158.326 33.9391C159.134 33.4011 159.251 32.1565 158.588 31.1593C157.925 30.162 156.733 29.7897 155.926 30.3277C155.118 30.8657 155.001 32.1102 155.664 33.1074C156.327 34.1047 157.519 34.4771 158.326 33.9391Z"
                fill="#202124" />
        <path d="M140.025 33.1109C140.688 32.1136 140.57 30.8691 139.763 30.3311C138.955 29.7931 137.763 30.1655 137.1 31.1627C136.438 32.16 136.555 33.4045 137.362 33.9425C138.17 34.4805 139.362 34.1081 140.025 33.1109Z"
                fill="#202124" />
    </g>
    <defs>
        <clipPath id="clip0_54883_32731">
            <rect fill="white" height="23.9992" transform="translate(16.7607 16.0005)" width="151.247" />
        </clipPath>
    </defs>
</svg>
