<svg fill="none" height="48" viewBox="0 0 49 48" width="49" xmlns="http://www.w3.org/2000/svg">
    <path clip-rule="evenodd" d="M24.4983 6C14.5588 6 6.5 14.0588 6.5 24.0005C6.5 31.9533 11.6571 38.6993 18.8098 41.0806C19.7104 41.2453 20.0385 40.6895 20.0385 40.2121C20.0385 39.7856 20.0231 38.6529 20.0142 37.1512C15.0074 38.2386 13.9511 34.7379 13.9511 34.7379C13.1322 32.6594 11.9521 32.1058 11.9521 32.1058C10.3178 30.9886 12.0759 31.0107 12.0759 31.0107C13.8825 31.1389 14.8329 32.866 14.8329 32.866C16.4384 35.6164 19.0462 34.8219 20.0717 34.3622C20.2352 33.1986 20.6993 32.4052 21.2143 31.9555C17.2175 31.5013 13.0151 29.9565 13.0151 23.0591C13.0151 21.0944 13.7168 19.4877 14.8682 18.2291C14.6826 17.7738 14.0649 15.9439 15.0439 13.4654C15.0439 13.4654 16.5556 12.9814 19.9943 15.3108C21.4297 14.9119 22.9701 14.7119 24.5006 14.7052C26.0288 14.7119 27.5692 14.9119 29.0068 15.3108C32.4433 12.9814 33.9517 13.4654 33.9517 13.4654C34.934 15.9439 34.3163 17.7738 34.1307 18.2291C35.2843 19.4877 35.9816 21.0944 35.9816 23.0591C35.9816 29.9742 31.7726 31.4958 27.7625 31.9411C28.409 32.4969 28.9847 33.5953 28.9847 35.2749C28.9847 37.6805 28.9626 39.622 28.9626 40.2121C28.9626 40.6939 29.2863 41.2541 30.2002 41.0784C37.3474 38.6927 42.5 31.9511 42.5 24.0005C42.5 14.0588 34.4401 6 24.4983 6Z"
            fill="white"
            fill-rule="evenodd" />
</svg>
