<svg width="140" height="56" viewBox="0 0 140 56" fill="none" xmlns="http://www.w3.org/2000/svg">
    <g clip-path="url(#clip0_54883_32760)">
        <path d="M27.3734 16.0001L16.0078 27.9527V38.6367L27.3572 27.2684L38.6463 16.0001H27.3734Z"
                fill="url(#paint0_linear_54883_32760)" />
        <path d="M45.6465 16.9706H50.6276L50.6276 26.8681L59.8136 16.9706H65.8298L56.6116 26.577L66.2503 39.6121L60.2665 39.6121L53.2476 29.9735L50.6276 32.6904L50.6276 39.6121H45.6465L45.6465 16.9699V16.9706Z"
                fill="white" />
        <path d="M63.6016 31.0406V30.9761C63.6016 25.995 67.6125 21.9517 73.014 21.9517C78.3833 21.9517 82.3618 25.9301 82.3618 30.9112V30.9759C82.3618 35.9571 78.3509 39.9999 72.9493 39.9999C67.58 39.9999 63.6016 36.0217 63.6016 31.0406ZM77.51 31.0406V30.9761C77.51 28.4208 75.6664 26.189 72.9493 26.189C70.1353 26.189 68.4533 28.356 68.4533 30.9114V30.9762C68.4533 33.5313 70.297 35.7631 73.014 35.7631C75.828 35.7631 77.51 33.596 77.51 31.0406Z"
                fill="white" />
        <path d="M83.7195 34.6956V26.4801H81.6494V22.2752H83.7195L83.7195 17.8439H88.636V22.2752H92.7113V26.4801H88.636V33.8872C88.636 35.0191 89.121 35.5692 90.2208 35.5692C91.1265 35.5692 91.9352 35.3427 92.6466 34.9544V38.9006C91.6116 39.5151 90.4148 39.9032 88.7653 39.9032C85.7573 39.9033 83.7195 38.7063 83.7195 34.6956Z"
                fill="white" />
        <path d="M94.124 16.0001H99.0405L99.0405 39.6112H94.124L94.124 16.0001Z" fill="white" />
        <path d="M100.817 16.0001H105.992V20.3668H100.817V16.0001ZM100.947 22.275H105.863L105.863 39.6119L100.947 39.6119L100.947 22.275Z"
                fill="white" />
        <path d="M107.733 22.275H112.65V24.7332C113.782 23.2777 115.238 21.9517 117.728 21.9517C121.448 21.9517 123.615 24.4099 123.615 28.3883V39.6119L118.699 39.6119V29.9408C118.699 27.6121 117.599 26.4152 115.723 26.4152C113.847 26.4152 112.65 27.6121 112.65 29.9408L112.65 39.6119H107.734L107.734 22.275L107.733 22.275Z"
                fill="white" />
        <path d="M16.0449 39.5956L27.353 28.2275L38.601 39.5956H16.0449Z" fill="url(#paint1_linear_54883_32760)" />
        <path d="M16.0449 16.9592H27.3694L16.0449 28.9116V16.9592Z" fill="url(#paint2_linear_54883_32760)" />
    </g>
    <defs>
        <linearGradient id="paint0_linear_54883_32760" x1="13.4421" y1="35.5675" x2="31.5934" y2="17.416"
                gradientUnits="userSpaceOnUse">
            <stop offset="0.10753" stop-color="#C757BC" />
            <stop offset="0.21383" stop-color="#D0609A" />
            <stop offset="0.42537" stop-color="#E1725C" />
            <stop offset="0.60485" stop-color="#EE7E2F" />
            <stop offset="0.74303" stop-color="#F58613" />
            <stop offset="0.82323" stop-color="#F88909" />
        </linearGradient>
        <linearGradient id="paint1_linear_54883_32760" x1="24.0001" y1="42.9223" x2="33.5622" y2="33.394"
                gradientUnits="userSpaceOnUse">
            <stop offset="0.09677" stop-color="#0095D5" />
            <stop offset="0.30073" stop-color="#238AD9" />
            <stop offset="0.62106" stop-color="#557BDE" />
            <stop offset="0.86432" stop-color="#7472E2" />
            <stop offset="1" stop-color="#806EE3" />
        </linearGradient>
        <linearGradient id="paint2_linear_54883_32760" x1="15.0104" y1="23.9736" x2="23.3682" y2="15.6462"
                gradientUnits="userSpaceOnUse">
            <stop offset="0.09677" stop-color="#0095D5" />
            <stop offset="0.30073" stop-color="#238AD9" />
            <stop offset="0.62106" stop-color="#557BDE" />
            <stop offset="0.86432" stop-color="#7472E2" />
            <stop offset="1" stop-color="#806EE3" />
        </linearGradient>
        <clipPath id="clip0_54883_32760">
            <rect width="107.607" height="23.9998" fill="white" transform="translate(16.0078 16.0001)" />
        </clipPath>
    </defs>
</svg>
