<svg width="140" height="56" viewBox="0 0 140 56" fill="none" xmlns="http://www.w3.org/2000/svg">
    <g clip-path="url(#clip0_54883_32759)">
        <path d="M27.3734 16L16.0078 27.9525V38.6365L27.3572 27.2683L38.6463 16H27.3734Z"
                fill="url(#paint0_linear_54883_32759)" />
        <path d="M45.6465 16.9704H50.6276L50.6276 26.868L59.8136 16.9704H65.8298L56.6116 26.5768L66.2503 39.6119L60.2665 39.6119L53.2476 29.9733L50.6276 32.6902L50.6276 39.6119H45.6465L45.6465 16.9697V16.9704Z"
                fill="#231F20" />
        <path d="M63.6016 31.0403V30.9759C63.6016 25.9947 67.6125 21.9514 73.014 21.9514C78.3833 21.9514 82.3618 25.9299 82.3618 30.911V30.9757C82.3618 35.9568 78.3509 39.9997 72.9493 39.9997C67.58 39.9997 63.6016 36.0214 63.6016 31.0403ZM77.51 31.0403V30.9759C77.51 28.4205 75.6664 26.1887 72.9493 26.1887C70.1353 26.1887 68.4533 28.3558 68.4533 30.9112V30.9759C68.4533 33.531 70.297 35.7628 73.014 35.7628C75.828 35.7628 77.51 33.5957 77.51 31.0403Z"
                fill="#231F20" />
        <path d="M83.7195 34.6955V26.48H81.6494V22.2751H83.7195L83.7195 17.8438H88.636V22.2751H92.7113V26.48H88.636V33.8871C88.636 35.0189 89.121 35.569 90.2208 35.569C91.1265 35.569 91.9352 35.3426 92.6466 34.9542V38.9005C91.6116 39.515 90.4148 39.9031 88.7653 39.9031C85.7573 39.9031 83.7195 38.7062 83.7195 34.6955Z"
                fill="#231F20" />
        <path d="M94.124 16H99.0405L99.0405 39.6111H94.124L94.124 16Z" fill="#231F20" />
        <path d="M100.817 16H105.992V20.3667H100.817V16ZM100.947 22.2749H105.863L105.863 39.6118L100.947 39.6118L100.947 22.2749Z"
                fill="#231F20" />
        <path d="M107.733 22.275H112.65V24.7332C113.782 23.2777 115.238 21.9517 117.728 21.9517C121.448 21.9517 123.615 24.4099 123.615 28.3883V39.6119L118.699 39.6119V29.9408C118.699 27.6121 117.599 26.4152 115.723 26.4152C113.847 26.4152 112.65 27.6121 112.65 29.9408L112.65 39.6119H107.734L107.734 22.275L107.733 22.275Z"
                fill="#231F20" />
        <path d="M16.0449 39.5954L27.353 28.2273L38.601 39.5954H16.0449Z" fill="url(#paint1_linear_54883_32759)" />
        <path d="M16.0449 16.959H27.3694L16.0449 28.9114V16.959Z" fill="url(#paint2_linear_54883_32759)" />
    </g>
    <defs>
        <linearGradient id="paint0_linear_54883_32759" x1="13.4421" y1="35.5674" x2="31.5934" y2="17.4159"
                gradientUnits="userSpaceOnUse">
            <stop offset="0.10753" stop-color="#C757BC" />
            <stop offset="0.21383" stop-color="#D0609A" />
            <stop offset="0.42537" stop-color="#E1725C" />
            <stop offset="0.60485" stop-color="#EE7E2F" />
            <stop offset="0.74303" stop-color="#F58613" />
            <stop offset="0.82323" stop-color="#F88909" />
        </linearGradient>
        <linearGradient id="paint1_linear_54883_32759" x1="24.0001" y1="42.9221" x2="33.5622" y2="33.3938"
                gradientUnits="userSpaceOnUse">
            <stop offset="0.09677" stop-color="#0095D5" />
            <stop offset="0.30073" stop-color="#238AD9" />
            <stop offset="0.62106" stop-color="#557BDE" />
            <stop offset="0.86432" stop-color="#7472E2" />
            <stop offset="1" stop-color="#806EE3" />
        </linearGradient>
        <linearGradient id="paint2_linear_54883_32759" x1="15.0104" y1="23.9734" x2="23.3682" y2="15.646"
                gradientUnits="userSpaceOnUse">
            <stop offset="0.09677" stop-color="#0095D5" />
            <stop offset="0.30073" stop-color="#238AD9" />
            <stop offset="0.62106" stop-color="#557BDE" />
            <stop offset="0.86432" stop-color="#7472E2" />
            <stop offset="1" stop-color="#806EE3" />
        </linearGradient>
        <clipPath id="clip0_54883_32759">
            <rect width="107.607" height="23.9998" fill="white" transform="translate(16.0078 16)" />
        </clipPath>
    </defs>
</svg>
