<svg width="48" height="48" viewBox="0 0 48 48" fill="none" xmlns="http://www.w3.org/2000/svg">
    <path clip-rule="evenodd"
            d="M9.41333 7C8.08048 7 7 8.08048 7 9.41333V38.5866C7 39.9194 8.08049 40.9999 9.41333 40.9999H38.5867C39.9195 40.9999 41 39.9194 41 38.5866V9.41333C41 8.08048 39.9195 7 38.5867 7H9.41333ZM14.6314 17.5587C16.2604 17.5587 17.5809 16.2382 17.5809 14.6092C17.5809 12.9803 16.2604 11.6597 14.6314 11.6597C13.0025 11.6597 11.6819 12.9803 11.6819 14.6092C11.6819 16.2382 13.0025 17.5587 14.6314 17.5587ZM20.2822 19.7385H25.1704V21.9778C25.1704 21.9778 26.4969 19.3248 30.1061 19.3248C33.3257 19.3248 35.9928 20.9109 35.9928 25.7452V35.9395H30.9271V26.9805C30.9271 24.1287 29.4046 23.815 28.2444 23.815C25.8367 23.815 25.4245 25.8919 25.4245 27.3525V35.9395H20.2822V19.7385ZM17.2026 19.7385H12.0603V35.9395H17.2026V19.7385Z"
            fill="black" fill-rule="evenodd" />
</svg>
