<svg fill="none" height="48" viewBox="0 0 49 48" width="49" xmlns="http://www.w3.org/2000/svg">
    <path clip-rule="evenodd" d="M40.0432 16.1775C40.0568 16.5273 40.0613 16.8769 40.0613 17.2267C40.0613 27.8311 32.6016 40.0732 18.9605 40.0732C14.7701 40.0732 10.8737 38.7377 7.59082 36.4642C8.17114 36.5278 8.7605 36.5756 9.3589 36.5756C12.8333 36.5756 16.0333 35.2876 18.5716 33.1253C15.3264 33.0776 12.5861 30.7405 11.641 27.5608C12.0947 27.6562 12.5619 27.704 13.0397 27.704C13.7135 27.704 14.3677 27.6087 14.9947 27.418C11.5987 26.6866 9.04086 23.4434 9.04086 19.5482C9.04086 19.5005 9.04086 19.4845 9.04086 19.4527C10.0417 20.041 11.1873 20.4065 12.4037 20.4542C10.411 19.0074 9.10112 16.5431 9.10112 13.7609C9.10112 12.2982 9.46589 10.915 10.108 9.72256C13.7647 14.5875 19.2318 17.7832 25.3952 18.1171C25.2686 17.5288 25.2038 16.909 25.2038 16.2889C25.2038 11.8532 28.5244 8.26001 32.6212 8.26001C34.7541 8.26001 36.6804 9.22997 38.0325 10.788C39.7252 10.4383 41.3109 9.77057 42.7459 8.84845C42.1897 10.7245 41.0154 12.2981 39.481 13.2838C40.9823 13.0931 42.4143 12.6641 43.7422 12.0282C42.7459 13.6339 41.4918 15.0487 40.0432 16.1775Z"
            fill="white"
            fill-rule="evenodd" />
</svg>
