<svg width="48" height="48" viewBox="0 0 48 48" fill="none" xmlns="http://www.w3.org/2000/svg">
    <path clip-rule="evenodd"
            d="M39.5432 16.1775C39.5568 16.5273 39.5613 16.8769 39.5613 17.2267C39.5613 27.8311 32.1016 40.0732 18.4605 40.0732C14.2701 40.0732 10.3737 38.7377 7.09082 36.4642C7.67114 36.5278 8.2605 36.5756 8.8589 36.5756C12.3333 36.5756 15.5333 35.2876 18.0716 33.1253C14.8264 33.0776 12.0861 30.7405 11.141 27.5608C11.5947 27.6562 12.0619 27.704 12.5397 27.704C13.2135 27.704 13.8677 27.6087 14.4947 27.418C11.0987 26.6866 8.54086 23.4434 8.54086 19.5482C8.54086 19.5005 8.54086 19.4845 8.54086 19.4527C9.54172 20.041 10.6873 20.4065 11.9037 20.4542C9.91099 19.0074 8.60112 16.5431 8.60112 13.7609C8.60112 12.2982 8.96589 10.915 9.60801 9.72256C13.2647 14.5875 18.7318 17.7832 24.8952 18.1171C24.7686 17.5288 24.7038 16.909 24.7038 16.2889C24.7038 11.8532 28.0244 8.26001 32.1212 8.26001C34.2541 8.26001 36.1804 9.22997 37.5325 10.788C39.2252 10.4383 40.8109 9.77057 42.2459 8.84845C41.6897 10.7245 40.5154 12.2981 38.981 13.2838C40.4823 13.0931 41.9143 12.6641 43.2422 12.0282C42.2459 13.6339 40.9918 15.0487 39.5432 16.1775Z"
            fill="black" fill-rule="evenodd" />
</svg>
